<?xml version="1.0" standalone="no"?><!DOCTYPE svg PUBLIC "-//W3C//DTD SVG 1.1//EN" "http://www.w3.org/Graphics/SVG/1.1/DTD/svg11.dtd"><svg t="1634143006289" class="icon" viewBox="0 0 1028 1024" version="1.1" xmlns="http://www.w3.org/2000/svg" p-id="14619" width="48.1875" height="48" data-spm-anchor-id="a313x.7781069.0.i38" xmlns:xlink="http://www.w3.org/1999/xlink"><defs><style type="text/css"></style></defs><path d="M365.84748477 501.68124512H150.46001123c-48.77249239 0-88.46001123-40.68575684-88.46001123-90.63798486V190.40243398c0-49.95222803 39.67743604-90.59765185 88.44992842-90.59765185h215.39755635c48.77249239 0 88.44992842 40.64542383 88.44992754 90.59765185v220.64082628c0 49.95222803-39.67743604 90.63798487-88.44992754 90.63798485zM150.46001123 153.62896309c-19.79334317 0-35.89623193 16.50621622-35.89623193 36.77347089v220.64082628c0 20.26725469 16.13313808 36.76338809 35.89623193 36.76338808h215.38747354c19.79334317 0 35.89623193-16.4961334 35.89623105-36.76338808V190.40243398c0-20.26725469-16.13313808-36.77347089-35.89623105-36.77347089zM365.84748477 962H150.46001123C101.68751885 962 62.01008281 921.35457617 62.01008281 871.39226445V650.76152187c-0.01008281-49.96231084 39.67743604-90.59765185 88.44992842-90.59765185h215.38747354c48.77249239 0 88.44992842 40.64542383 88.44992754 90.60773467v220.62065976c0 49.96231084-39.67743604 90.60773555-88.44992754 90.60773555zM150.46001123 613.98805098c-19.79334317 0-35.89623193 16.4961334-35.89623193 36.7734709v220.63074257c0 20.2773375 16.13313808 36.77347089 35.89623193 36.7734709h215.38747354c19.79334317 0 35.89623193-16.4961334 35.89623105-36.7734709V650.76152187c0-20.2773375-16.13313808-36.77347089-35.89623105-36.77347089zM916.95547286 430.62485644l-192.40783507 99.15829806c-43.55947177 22.45531114-96.79882676 4.41644677-118.76006074-40.2118462l-96.79882676-197.08644463c-21.92090098-44.62829209-4.30553145-99.20871474 39.25394033-121.66402588L740.60010987 71.65245605c43.56955547-22.44522832 96.84924258-4.40636308 118.77014355 40.22192989l96.79882763 197.08644463c21.9713168 44.62829209 4.35594727 99.20871474-39.2136082 121.66402587z m-345.09790196-211.74743407c-17.68595273 9.07488984-24.83494893 31.25795449-15.93147304 49.40773417l96.79882675 197.09652833a35.54331943 35.54331943 0 0 0 48.20783291 16.31463573l192.40783418-99.15829804c17.67586904-9.07488984 24.82486612-31.25795449 15.93147392-49.40773506l-96.79882675-197.09652832a35.53323574 35.53323574 0 0 0-48.19774922-16.31463574zM840.29281807 962H624.90534541c-48.77249239 0-88.44992842-40.64542383-88.44992842-90.60773555V650.76152187c0-49.96231084 39.67743604-90.60773555 88.44992842-90.60773554h215.38747266c48.77249239 0 88.44992842 40.64542383 88.44992841 90.60773554v220.63074258c0 49.96231084-39.67743604 90.60773555-88.44992841 90.60773555zM624.90534541 613.98805098c-19.79334317 0-35.89623193 16.4961334-35.89623193 36.7734709v220.63074257c0 20.2773375 16.13313808 36.77347089 35.89623193 36.7734709h215.38747266c19.79334317 0 35.89623193-16.4961334 35.89623193-36.7734709V650.76152187c0-20.2773375-16.13313808-36.77347089-35.89623193-36.77347089z" p-id="14620" fill="#52C41A"></path></svg>