<?xml version="1.0" standalone="no"?><!DOCTYPE svg PUBLIC "-//W3C//DTD SVG 1.1//EN" "http://www.w3.org/Graphics/SVG/1.1/DTD/svg11.dtd"><svg t="1634142755603" class="icon" viewBox="0 0 1029 1024" version="1.1" xmlns="http://www.w3.org/2000/svg" p-id="8061" width="48.234375" height="48" xmlns:xlink="http://www.w3.org/1999/xlink"><defs><style type="text/css"></style></defs><path d="M486.656 997.312c-268.288 0-486.656-218.304-486.656-486.656 0-268.288 218.304-486.656 486.656-486.656 268.352 0 486.656 218.304 486.656 486.656C973.376 779.008 755.008 997.312 486.656 997.312zM486.656 88c-233.088 0-422.656 189.568-422.656 422.656 0 233.088 189.568 422.656 422.656 422.656s422.656-189.632 422.656-422.656C909.376 277.568 719.744 88 486.656 88z" p-id="8062" fill="#FF4D4F"></path><path d="M816.064 544 432.064 544 432.064 160 496.064 160 496.064 480 816.064 480Z" p-id="8063" fill="#FF4D4F"></path></svg>